# xmcd
#
# Track frame offsets:
# 150
# 22655
# 44147
# 66937
# 86705
# 108967
# 130112
# 153312
# 175455
# 196127
# 218740
#
# Disc length: 3190 seconds
#
#
# Revision: 2
# Processed by: cddbd v1.5.2PL0 Copyright (c) Steve Scherf et al.
# Submitted via: FreeRIP 2.945 
#
DISCID=920c740b
DTITLE=Commissioned - State Of Mind
DYEAR=1900
DGENRE=Gospel
TTITLE0=He Set Me Free
TTITLE1=One Step After Another
TTITLE2=I Am Here
TTITLE3=At The Point Of Your Need
TTITLE4=I Will Never Leave You
TTITLE5=Back To My First Love
TTITLE6=The Way You Love Me
TTITLE7=If God Is For Us
TTITLE8=Let Me Tell It
TTITLE9=Everlasting Love
TTITLE10=Somebody's Watchin' You
EXTD=p. c.1990 The Benson Company, Inc.
EXTT0=
EXTT1=
EXTT2=
EXTT3=
EXTT4=
EXTT5=
EXTT6=
EXTT7=
EXTT8=
EXTT9=
EXTT10=
PLAYORDER=
